HIERARCHY
ROOT Hips
{
  OFFSET 0 0 0
  CHANNELS 6 Xposition Yposition Zposition Zrotation Yrotation Xrotation
  JOINT LeftThigh
  {
    OFFSET 8.409438 0 -5.917753
    CHANNELS 3 Zrotation Yrotation Xrotation
    JOINT LeftLeg
    {
      OFFSET 0 0 -42.358652
      CHANNELS 3 Zrotation Yrotation Xrotation
      JOINT LeftFoot
      {
        OFFSET 0 0 -39.357303
        CHANNELS 3 Zrotation Yrotation Xrotation
      }
    }
  }
  JOINT RightThigh
  {
    OFFSET -8.409438 0 -5.917753
    CHANNELS 3 Zrotation Yrotation Xrotation
    JOINT RightLeg
    {
      OFFSET 0 0 -42.358652
      CHANNELS 3 Zrotation Yrotation Xrotation
      JOINT RightFoot
      {
        OFFSET 0 0 -39.357303
        CHANNELS 3 Zrotation Yrotation Xrotation
      }
    }
  }
  JOINT SpineLow
  {
    OFFSET 0 0 4.719101
    CHANNELS 3 Zrotation Yrotation Xrotation
    JOINT SpineMid
    {
      OFFSET 0 0 12.899191
      CHANNELS 3 Zrotation Yrotation Xrotation
      JOINT Chest
      {
        OFFSET 0 0 12.899191
        CHANNELS 3 Zrotation Yrotation Xrotation
        JOINT LeftShoulder
        {
          OFFSET 7.550562 1.41573 9.438202
          CHANNELS 3 Zrotation Yrotation Xrotation
          JOINT LeftArm
          {
            OFFSET 9.155056 0 4.247191
            CHANNELS 3 Zrotation Yrotation Xrotation
            JOINT LeftForearm
            {
              OFFSET 0 0 25.771955
              CHANNELS 3 Zrotation Yrotation Xrotation
              JOINT LeftHand
              {
                OFFSET 0 0 25.197169
                CHANNELS 3 Zrotation Yrotation Xrotation
              }
            }
          }
        }
        JOINT RightShoulder
        {
          OFFSET -7.550562 1.41573 9.438202
          CHANNELS 3 Zrotation Yrotation Xrotation
          JOINT RightArm
          {
            OFFSET -9.155056 0 4.247191
            CHANNELS 3 Zrotation Yrotation Xrotation
            JOINT RightForearm
            {
              OFFSET 0 0 -25.771955
              CHANNELS 3 Zrotation Yrotation Xrotation
              JOINT RightHand
              {
                OFFSET 0 0 -25.197169
                CHANNELS 3 Zrotation Yrotation Xrotation
              }
            }
          }
        }
        JOINT Neck
        {
          OFFSET 0 0 15.101124
          CHANNELS 3 Zrotation Yrotation Xrotation
          JOINT Head
          {
            OFFSET 0 0 11.325843
            CHANNELS 3 Zrotation Yrotation Xrotation
            End Site
            {
              OFFSET 0 0 14.157303
            }
          }
        }
      }
    }
  }
}
MOTION
Frames: 8
Frame Time: 0.0
0.0  89.887642  0.0  10.534321  28.804524  -85.190453  28.336789  -30.858337  13.115531  -3.635286  16.283434  21.154866  -3.550498  0.505331  -2.980501  -26.56849  12.192241  -52.477577  6.018697  3.683848  64.86089  9.564475  3.788056  1.577279  1.768329  0.623655  1.549719  4.8721  1.589584  4.279755  4.8721  1.589585  4.279755  -19.906339  15.775734  4.865718  125.721571  47.731421  -162.461176  -21.639379  -2.757265  84.928485  75.892381  0.758272  13.722027  -9.538405  0.90753  9.028345  0.215814  58.639536  -20.001039  -26.602908  -16.725105  -94.633514  57.106839  -15.501585  5.136719  -36.014436  -2.505382  -6.310274  -27.035766  -1.512902  -4.90026  
0.0  89.887642  0.0  10.324267  26.830089  -85.343269  29.179591  -30.621061  14.161036  -3.583617  15.805451  20.327342  -3.231865  0.65134  -2.825893  -25.329596  11.077627  -52.53708  6.670229  3.67813  64.762881  9.329436  3.954536  1.694769  1.79637  0.703875  1.611721  4.955735  1.802104  4.455981  4.955734  1.802105  4.455982  -20.050361  14.810943  4.256174  126.87609  48.254041  -161.003353  -22.279725  -5.405154  87.101968  77.206535  1.523239  14.048691  -8.884087  0.714892  8.239178  -0.705094  59.268558  -21.615779  -25.528877  -17.53033  -95.287588  56.293301  -16.638452  7.023015  -35.060241  -3.014637  -6.364278  -26.323819  -1.902933  -4.964989  
0.0  89.887642  0.0  10.055988  24.652932  -85.603019  29.847883  -30.334333  15.441184  -3.285349  15.230153  19.456896  -2.921883  0.73985  -2.682922  -23.950366  9.943874  -52.377154  7.342002  3.671682  64.525896  9.083227  4.067228  1.828091  1.848515  0.770237  1.695765  5.105287  1.973203  4.69225  5.105287  1.973203  4.692249  -20.323766  13.654499  3.220977  128.904468  49.118659  -159.113378  -22.815459  -8.254679  89.876521  79.201465  2.596728  14.808512  -8.351098  0.60939  7.11392  -2.053904  60.230783  -23.843468  -24.097982  -18.679531  -96.034233  55.622716  -17.195354  8.695804  -33.995005  -3.471288  -6.409719  -25.528094  -2.254972  -5.017948  
0.0  89.887642  0.0  9.785153  22.419231  -85.942155  29.962193  -29.849757  17.070561  -2.458736  14.448931  18.613262  -2.611036  0.800287  -2.554758  -22.475312  8.90656  -51.989244  7.976097  3.73936  64.155558  8.984966  4.08944  1.976037  1.914348  0.827895  1.779798  5.292027  2.119107  4.928488  5.292027  2.119107  4.928487  -20.721561  12.319032  1.98711  132.415951  50.732903  -156.399687  -23.030086  -10.884426  93.109211  81.474089  3.728788  15.93807  -7.974581  0.520786  5.775895  -3.903567  61.534295  -26.741102  -22.536723  -19.908241  -96.894406  55.386877  -17.027093  10.162015  -32.819668  -3.804136  -6.386634  -24.648547  -2.518634  -5.010299  
0.0  89.887642  0.0  9.561154  20.272541  -86.35181  29.346868  -29.055004  19.055112  -0.993195  13.421236  17.831886  -2.331017  0.812398  -2.445993  -20.940512  8.087634  -51.369829  8.545586  3.6356  63.62822  8.758699  4.127022  2.15384  1.937162  0.879608  1.874485  5.361478  2.250804  5.192251  5.361478  2.250804  5.192251  -20.983813  10.957318  0.696974  137.195914  53.465307  -152.783304  -23.391373  -13.023508  96.642547  83.702457  4.872891  17.461156  -7.603305  0.407382  4.166931  -6.265031  63.265942  -30.442275  -21.451676  -20.794165  -97.72748  55.662843  -16.476155  11.459965  -31.434053  -4.053032  -6.370088  -23.610887  -2.720668  -5.00039  
0.0  89.887642  0.0  9.349169  18.311438  -86.817525  28.092824  -28.0089  21.276833  0.995584  12.2085  17.066322  -1.991561  0.808837  -2.293397  -19.443446  7.387275  -50.4452  9.222469  3.269612  62.91507  8.518246  4.013466  2.363968  1.90277  0.892222  1.95332  5.27113  2.28162  5.407591  5.27113  2.28162  5.407591  -21.014635  9.814876  -0.404021  142.748218  57.082409  -148.19764  -24.192724  -14.602981  99.905463  85.827042  5.787892  18.952269  -7.080877  0.440869  2.451097  -9.747139  65.407711  -35.351045  -21.137962  -20.966591  -98.29514  56.258568  -15.860681  12.868869  -29.909295  -4.094653  -6.411344  -22.468216  -2.765147  -5.021719  
0.0  89.887642  0.0  9.11902  16.508286  -87.360568  26.465788  -26.830004  23.658107  3.228265  10.939307  16.26088  -1.458076  0.778036  -2.118335  -17.932574  6.856845  -49.105966  9.743719  2.634298  61.862011  8.270202  3.96456  2.641359  1.814131  0.854387  1.985297  5.026728  2.183208  5.48904  5.026728  2.183208  5.48904  -20.963619  8.962212  -1.379171  148.971948  61.130477  -142.703048  -25.783154  -15.477411  102.423764  87.613078  6.556991  20.209854  -6.970689  0.612428  0.81633  -14.330016  67.90846  -41.969366  -21.41874  -20.33793  -98.676535  56.970362  -15.326056  14.787582  -28.294361  -3.835542  -6.452197  -21.256074  -2.584597  -5.028167  
0.0  89.887642  0.0  8.845521  14.846291  -87.88671  24.83047  -25.481908  25.927382  5.227432  9.580189  15.394822  -0.880151  0.709888  -2.009356  -16.373568  6.496257  -47.618591  10.159053  1.771544  60.730308  8.116659  3.848766  2.888049  1.700981  0.816307  2.002337  4.714825  2.087496  5.529193  4.714826  2.087496  5.529193  -20.670957  7.930114  -2.389071  156.441656  65.110148  -135.603964  -27.610235  -15.498874  104.090848  88.888411  7.776057  20.778755  -6.422479  0.771921  -0.802109  -22.013183  70.236413  -51.245232  -22.213286  -19.208197  -98.78421  57.860579  -14.816089  16.900995  -26.693119  -3.543548  -6.51468  -20.053878  -2.378598  -5.051007  
